<?xml version="1.0" standalone="no"?>
<svg xmlns="http://www.w3.org/2000/svg" width="500" height="500"><defs><clipPath id="clip-path-dot-color"><circle cx="26" cy="186" r="8" transform="rotate(0,26,186)"/><circle cx="26" cy="250" r="8" transform="rotate(0,26,250)"/><circle cx="26" cy="266" r="8" transform="rotate(0,26,266)"/><circle cx="26" cy="314" r="8" transform="rotate(0,26,314)"/><circle cx="42" cy="170" r="8" transform="rotate(0,42,170)"/><circle cx="42" cy="234" r="8" transform="rotate(0,42,234)"/><circle cx="42" cy="266" r="8" transform="rotate(0,42,266)"/><circle cx="42" cy="298" r="8" transform="rotate(0,42,298)"/><circle cx="42" cy="314" r="8" transform="rotate(0,42,314)"/><circle cx="42" cy="330" r="8" transform="rotate(0,42,330)"/><circle cx="42" cy="346" r="8" transform="rotate(0,42,346)"/><circle cx="58" cy="154" r="8" transform="rotate(0,58,154)"/><circle cx="58" cy="186" r="8" transform="rotate(0,58,186)"/><circle cx="58" cy="202" r="8" transform="rotate(0,58,202)"/><circle cx="58" cy="234" r="8" transform="rotate(0,58,234)"/><circle cx="58" cy="266" r="8" transform="rotate(0,58,266)"/><circle cx="58" cy="298" r="8" transform="rotate(0,58,298)"/><circle cx="58" cy="314" r="8" transform="rotate(0,58,314)"/><circle cx="74" cy="170" r="8" transform="rotate(0,74,170)"/><circle cx="74" cy="234" r="8" transform="rotate(0,74,234)"/><circle cx="74" cy="314" r="8" transform="rotate(0,74,314)"/><circle cx="90" cy="154" r="8" transform="rotate(0,90,154)"/><circle cx="90" cy="170" r="8" transform="rotate(0,90,170)"/><circle cx="90" cy="186" r="8" transform="rotate(0,90,186)"/><circle cx="90" cy="250" r="8" transform="rotate(0,90,250)"/><circle cx="90" cy="298" r="8" transform="rotate(0,90,298)"/><circle cx="90" cy="314" r="8" transform="rotate(0,90,314)"/><circle cx="106" cy="154" r="8" transform="rotate(0,106,154)"/><circle cx="106" cy="186" r="8" transform="rotate(0,106,186)"/><circle cx="106" cy="202" r="8" transform="rotate(0,106,202)"/><circle cx="106" cy="250" r="8" transform="rotate(0,106,250)"/><circle cx="106" cy="266" r="8" transform="rotate(0,106,266)"/><circle cx="106" cy="282" r="8" transform="rotate(0,106,282)"/><circle cx="106" cy="298" r="8" transform="rotate(0,106,298)"/><circle cx="106" cy="330" r="8" transform="rotate(0,106,330)"/><circle cx="122" cy="154" r="8" transform="rotate(0,122,154)"/><circle cx="122" cy="186" r="8" transform="rotate(0,122,186)"/><circle cx="122" cy="218" r="8" transform="rotate(0,122,218)"/><circle cx="122" cy="250" r="8" transform="rotate(0,122,250)"/><circle cx="122" cy="282" r="8" transform="rotate(0,122,282)"/><circle cx="122" cy="314" r="8" transform="rotate(0,122,314)"/><circle cx="122" cy="346" r="8" transform="rotate(0,122,346)"/><circle cx="138" cy="170" r="8" transform="rotate(0,138,170)"/><circle cx="138" cy="186" r="8" transform="rotate(0,138,186)"/><circle cx="138" cy="202" r="8" transform="rotate(0,138,202)"/><circle cx="138" cy="250" r="8" transform="rotate(0,138,250)"/><circle cx="138" cy="298" r="8" transform="rotate(0,138,298)"/><circle cx="138" cy="314" r="8" transform="rotate(0,138,314)"/><circle cx="154" cy="42" r="8" transform="rotate(0,154,42)"/><circle cx="154" cy="90" r="8" transform="rotate(0,154,90)"/><circle cx="154" cy="122" r="8" transform="rotate(0,154,122)"/><circle cx="154" cy="154" r="8" transform="rotate(0,154,154)"/><circle cx="154" cy="186" r="8" transform="rotate(0,154,186)"/><circle cx="154" cy="218" r="8" transform="rotate(0,154,218)"/><circle cx="154" cy="234" r="8" transform="rotate(0,154,234)"/><circle cx="154" cy="250" r="8" transform="rotate(0,154,250)"/><circle cx="154" cy="282" r="8" transform="rotate(0,154,282)"/><circle cx="154" cy="298" r="8" transform="rotate(0,154,298)"/><circle cx="154" cy="330" r="8" transform="rotate(0,154,330)"/><circle cx="154" cy="346" r="8" transform="rotate(0,154,346)"/><circle cx="154" cy="362" r="8" transform="rotate(0,154,362)"/><circle cx="154" cy="394" r="8" transform="rotate(0,154,394)"/><circle cx="154" cy="410" r="8" transform="rotate(0,154,410)"/><circle cx="154" cy="442" r="8" transform="rotate(0,154,442)"/><circle cx="170" cy="26" r="8" transform="rotate(0,170,26)"/><circle cx="170" cy="58" r="8" transform="rotate(0,170,58)"/><circle cx="170" cy="74" r="8" transform="rotate(0,170,74)"/><circle cx="170" cy="154" r="8" transform="rotate(0,170,154)"/><circle cx="170" cy="170" r="8" transform="rotate(0,170,170)"/><circle cx="170" cy="218" r="8" transform="rotate(0,170,218)"/><circle cx="170" cy="250" r="8" transform="rotate(0,170,250)"/><circle cx="170" cy="282" r="8" transform="rotate(0,170,282)"/><circle cx="170" cy="298" r="8" transform="rotate(0,170,298)"/><circle cx="170" cy="314" r="8" transform="rotate(0,170,314)"/><circle cx="170" cy="330" r="8" transform="rotate(0,170,330)"/><circle cx="170" cy="362" r="8" transform="rotate(0,170,362)"/><circle cx="170" cy="378" r="8" transform="rotate(0,170,378)"/><circle cx="170" cy="410" r="8" transform="rotate(0,170,410)"/><circle cx="170" cy="442" r="8" transform="rotate(0,170,442)"/><circle cx="170" cy="458" r="8" transform="rotate(0,170,458)"/><circle cx="170" cy="474" r="8" transform="rotate(0,170,474)"/><circle cx="186" cy="58" r="8" transform="rotate(0,186,58)"/><circle cx="186" cy="74" r="8" transform="rotate(0,186,74)"/><circle cx="186" cy="90" r="8" transform="rotate(0,186,90)"/><circle cx="186" cy="122" r="8" transform="rotate(0,186,122)"/><circle cx="186" cy="138" r="8" transform="rotate(0,186,138)"/><circle cx="186" cy="154" r="8" transform="rotate(0,186,154)"/><circle cx="186" cy="186" r="8" transform="rotate(0,186,186)"/><circle cx="186" cy="202" r="8" transform="rotate(0,186,202)"/><circle cx="186" cy="218" r="8" transform="rotate(0,186,218)"/><circle cx="186" cy="234" r="8" transform="rotate(0,186,234)"/><circle cx="186" cy="250" r="8" transform="rotate(0,186,250)"/><circle cx="186" cy="282" r="8" transform="rotate(0,186,282)"/><circle cx="186" cy="298" r="8" transform="rotate(0,186,298)"/><circle cx="186" cy="346" r="8" transform="rotate(0,186,346)"/><circle cx="186" cy="362" r="8" transform="rotate(0,186,362)"/><circle cx="186" cy="394" r="8" transform="rotate(0,186,394)"/><circle cx="186" cy="474" r="8" transform="rotate(0,186,474)"/><circle cx="202" cy="26" r="8" transform="rotate(0,202,26)"/><circle cx="202" cy="42" r="8" transform="rotate(0,202,42)"/><circle cx="202" cy="58" r="8" transform="rotate(0,202,58)"/><circle cx="202" cy="74" r="8" transform="rotate(0,202,74)"/><circle cx="202" cy="90" r="8" transform="rotate(0,202,90)"/><circle cx="202" cy="106" r="8" transform="rotate(0,202,106)"/><circle cx="202" cy="138" r="8" transform="rotate(0,202,138)"/><circle cx="202" cy="170" r="8" transform="rotate(0,202,170)"/><circle cx="202" cy="218" r="8" transform="rotate(0,202,218)"/><circle cx="202" cy="234" r="8" transform="rotate(0,202,234)"/><circle cx="202" cy="250" r="8" transform="rotate(0,202,250)"/><circle cx="202" cy="282" r="8" transform="rotate(0,202,282)"/><circle cx="202" cy="298" r="8" transform="rotate(0,202,298)"/><circle cx="202" cy="362" r="8" transform="rotate(0,202,362)"/><circle cx="202" cy="394" r="8" transform="rotate(0,202,394)"/><circle cx="202" cy="426" r="8" transform="rotate(0,202,426)"/><circle cx="202" cy="458" r="8" transform="rotate(0,202,458)"/><circle cx="202" cy="474" r="8" transform="rotate(0,202,474)"/><circle cx="218" cy="42" r="8" transform="rotate(0,218,42)"/><circle cx="218" cy="58" r="8" transform="rotate(0,218,58)"/><circle cx="218" cy="90" r="8" transform="rotate(0,218,90)"/><circle cx="218" cy="106" r="8" transform="rotate(0,218,106)"/><circle cx="218" cy="122" r="8" transform="rotate(0,218,122)"/><circle cx="218" cy="138" r="8" transform="rotate(0,218,138)"/><circle cx="218" cy="154" r="8" transform="rotate(0,218,154)"/><circle cx="218" cy="170" r="8" transform="rotate(0,218,170)"/><circle cx="218" cy="186" r="8" transform="rotate(0,218,186)"/><circle cx="218" cy="202" r="8" transform="rotate(0,218,202)"/><circle cx="218" cy="250" r="8" transform="rotate(0,218,250)"/><circle cx="218" cy="266" r="8" transform="rotate(0,218,266)"/><circle cx="218" cy="282" r="8" transform="rotate(0,218,282)"/><circle cx="218" cy="298" r="8" transform="rotate(0,218,298)"/><circle cx="218" cy="346" r="8" transform="rotate(0,218,346)"/><circle cx="218" cy="394" r="8" transform="rotate(0,218,394)"/><circle cx="218" cy="426" r="8" transform="rotate(0,218,426)"/><circle cx="218" cy="474" r="8" transform="rotate(0,218,474)"/><circle cx="234" cy="42" r="8" transform="rotate(0,234,42)"/><circle cx="234" cy="90" r="8" transform="rotate(0,234,90)"/><circle cx="234" cy="202" r="8" transform="rotate(0,234,202)"/><circle cx="234" cy="234" r="8" transform="rotate(0,234,234)"/><circle cx="234" cy="250" r="8" transform="rotate(0,234,250)"/><circle cx="234" cy="266" r="8" transform="rotate(0,234,266)"/><circle cx="234" cy="282" r="8" transform="rotate(0,234,282)"/><circle cx="234" cy="298" r="8" transform="rotate(0,234,298)"/><circle cx="234" cy="314" r="8" transform="rotate(0,234,314)"/><circle cx="234" cy="378" r="8" transform="rotate(0,234,378)"/><circle cx="234" cy="410" r="8" transform="rotate(0,234,410)"/><circle cx="234" cy="442" r="8" transform="rotate(0,234,442)"/><circle cx="234" cy="474" r="8" transform="rotate(0,234,474)"/><circle cx="250" cy="42" r="8" transform="rotate(0,250,42)"/><circle cx="250" cy="74" r="8" transform="rotate(0,250,74)"/><circle cx="250" cy="122" r="8" transform="rotate(0,250,122)"/><circle cx="250" cy="138" r="8" transform="rotate(0,250,138)"/><circle cx="250" cy="154" r="8" transform="rotate(0,250,154)"/><circle cx="250" cy="362" r="8" transform="rotate(0,250,362)"/><circle cx="250" cy="410" r="8" transform="rotate(0,250,410)"/><circle cx="250" cy="474" r="8" transform="rotate(0,250,474)"/><circle cx="266" cy="42" r="8" transform="rotate(0,266,42)"/><circle cx="266" cy="58" r="8" transform="rotate(0,266,58)"/><circle cx="266" cy="106" r="8" transform="rotate(0,266,106)"/><circle cx="266" cy="138" r="8" transform="rotate(0,266,138)"/><circle cx="266" cy="170" r="8" transform="rotate(0,266,170)"/><circle cx="266" cy="186" r="8" transform="rotate(0,266,186)"/><circle cx="266" cy="218" r="8" transform="rotate(0,266,218)"/><circle cx="266" cy="298" r="8" transform="rotate(0,266,298)"/><circle cx="266" cy="314" r="8" transform="rotate(0,266,314)"/><circle cx="266" cy="330" r="8" transform="rotate(0,266,330)"/><circle cx="266" cy="378" r="8" transform="rotate(0,266,378)"/><circle cx="266" cy="394" r="8" transform="rotate(0,266,394)"/><circle cx="266" cy="426" r="8" transform="rotate(0,266,426)"/><circle cx="266" cy="458" r="8" transform="rotate(0,266,458)"/><circle cx="282" cy="90" r="8" transform="rotate(0,282,90)"/><circle cx="282" cy="122" r="8" transform="rotate(0,282,122)"/><circle cx="282" cy="170" r="8" transform="rotate(0,282,170)"/><circle cx="282" cy="186" r="8" transform="rotate(0,282,186)"/><circle cx="282" cy="218" r="8" transform="rotate(0,282,218)"/><circle cx="282" cy="250" r="8" transform="rotate(0,282,250)"/><circle cx="282" cy="298" r="8" transform="rotate(0,282,298)"/><circle cx="282" cy="330" r="8" transform="rotate(0,282,330)"/><circle cx="282" cy="394" r="8" transform="rotate(0,282,394)"/><circle cx="282" cy="458" r="8" transform="rotate(0,282,458)"/><circle cx="282" cy="474" r="8" transform="rotate(0,282,474)"/><circle cx="298" cy="26" r="8" transform="rotate(0,298,26)"/><circle cx="298" cy="42" r="8" transform="rotate(0,298,42)"/><circle cx="298" cy="74" r="8" transform="rotate(0,298,74)"/><circle cx="298" cy="138" r="8" transform="rotate(0,298,138)"/><circle cx="298" cy="154" r="8" transform="rotate(0,298,154)"/><circle cx="298" cy="170" r="8" transform="rotate(0,298,170)"/><circle cx="298" cy="218" r="8" transform="rotate(0,298,218)"/><circle cx="298" cy="250" r="8" transform="rotate(0,298,250)"/><circle cx="298" cy="298" r="8" transform="rotate(0,298,298)"/><circle cx="298" cy="346" r="8" transform="rotate(0,298,346)"/><circle cx="298" cy="362" r="8" transform="rotate(0,298,362)"/><circle cx="298" cy="378" r="8" transform="rotate(0,298,378)"/><circle cx="298" cy="410" r="8" transform="rotate(0,298,410)"/><circle cx="298" cy="442" r="8" transform="rotate(0,298,442)"/><circle cx="298" cy="474" r="8" transform="rotate(0,298,474)"/><circle cx="314" cy="106" r="8" transform="rotate(0,314,106)"/><circle cx="314" cy="122" r="8" transform="rotate(0,314,122)"/><circle cx="314" cy="154" r="8" transform="rotate(0,314,154)"/><circle cx="314" cy="170" r="8" transform="rotate(0,314,170)"/><circle cx="314" cy="186" r="8" transform="rotate(0,314,186)"/><circle cx="314" cy="202" r="8" transform="rotate(0,314,202)"/><circle cx="314" cy="266" r="8" transform="rotate(0,314,266)"/><circle cx="314" cy="298" r="8" transform="rotate(0,314,298)"/><circle cx="314" cy="426" r="8" transform="rotate(0,314,426)"/><circle cx="314" cy="474" r="8" transform="rotate(0,314,474)"/><circle cx="330" cy="58" r="8" transform="rotate(0,330,58)"/><circle cx="330" cy="74" r="8" transform="rotate(0,330,74)"/><circle cx="330" cy="90" r="8" transform="rotate(0,330,90)"/><circle cx="330" cy="138" r="8" transform="rotate(0,330,138)"/><circle cx="330" cy="154" r="8" transform="rotate(0,330,154)"/><circle cx="330" cy="170" r="8" transform="rotate(0,330,170)"/><circle cx="330" cy="218" r="8" transform="rotate(0,330,218)"/><circle cx="330" cy="266" r="8" transform="rotate(0,330,266)"/><circle cx="330" cy="282" r="8" transform="rotate(0,330,282)"/><circle cx="330" cy="298" r="8" transform="rotate(0,330,298)"/><circle cx="330" cy="314" r="8" transform="rotate(0,330,314)"/><circle cx="330" cy="330" r="8" transform="rotate(0,330,330)"/><circle cx="330" cy="346" r="8" transform="rotate(0,330,346)"/><circle cx="330" cy="394" r="8" transform="rotate(0,330,394)"/><circle cx="330" cy="426" r="8" transform="rotate(0,330,426)"/><circle cx="330" cy="458" r="8" transform="rotate(0,330,458)"/><circle cx="330" cy="474" r="8" transform="rotate(0,330,474)"/><circle cx="346" cy="26" r="8" transform="rotate(0,346,26)"/><circle cx="346" cy="42" r="8" transform="rotate(0,346,42)"/><circle cx="346" cy="58" r="8" transform="rotate(0,346,58)"/><circle cx="346" cy="74" r="8" transform="rotate(0,346,74)"/><circle cx="346" cy="90" r="8" transform="rotate(0,346,90)"/><circle cx="346" cy="106" r="8" transform="rotate(0,346,106)"/><circle cx="346" cy="122" r="8" transform="rotate(0,346,122)"/><circle cx="346" cy="154" r="8" transform="rotate(0,346,154)"/><circle cx="346" cy="170" r="8" transform="rotate(0,346,170)"/><circle cx="346" cy="186" r="8" transform="rotate(0,346,186)"/><circle cx="346" cy="202" r="8" transform="rotate(0,346,202)"/><circle cx="346" cy="218" r="8" transform="rotate(0,346,218)"/><circle cx="346" cy="250" r="8" transform="rotate(0,346,250)"/><circle cx="346" cy="266" r="8" transform="rotate(0,346,266)"/><circle cx="346" cy="298" r="8" transform="rotate(0,346,298)"/><circle cx="346" cy="330" r="8" transform="rotate(0,346,330)"/><circle cx="346" cy="346" r="8" transform="rotate(0,346,346)"/><circle cx="346" cy="362" r="8" transform="rotate(0,346,362)"/><circle cx="346" cy="378" r="8" transform="rotate(0,346,378)"/><circle cx="346" cy="394" r="8" transform="rotate(0,346,394)"/><circle cx="346" cy="410" r="8" transform="rotate(0,346,410)"/><circle cx="362" cy="154" r="8" transform="rotate(0,362,154)"/><circle cx="362" cy="186" r="8" transform="rotate(0,362,186)"/><circle cx="362" cy="234" r="8" transform="rotate(0,362,234)"/><circle cx="362" cy="250" r="8" transform="rotate(0,362,250)"/><circle cx="362" cy="266" r="8" transform="rotate(0,362,266)"/><circle cx="362" cy="282" r="8" transform="rotate(0,362,282)"/><circle cx="362" cy="346" r="8" transform="rotate(0,362,346)"/><circle cx="362" cy="410" r="8" transform="rotate(0,362,410)"/><circle cx="362" cy="442" r="8" transform="rotate(0,362,442)"/><circle cx="362" cy="474" r="8" transform="rotate(0,362,474)"/><circle cx="378" cy="186" r="8" transform="rotate(0,378,186)"/><circle cx="378" cy="266" r="8" transform="rotate(0,378,266)"/><circle cx="378" cy="282" r="8" transform="rotate(0,378,282)"/><circle cx="378" cy="330" r="8" transform="rotate(0,378,330)"/><circle cx="378" cy="346" r="8" transform="rotate(0,378,346)"/><circle cx="378" cy="378" r="8" transform="rotate(0,378,378)"/><circle cx="378" cy="410" r="8" transform="rotate(0,378,410)"/><circle cx="378" cy="474" r="8" transform="rotate(0,378,474)"/><circle cx="394" cy="186" r="8" transform="rotate(0,394,186)"/><circle cx="394" cy="202" r="8" transform="rotate(0,394,202)"/><circle cx="394" cy="218" r="8" transform="rotate(0,394,218)"/><circle cx="394" cy="234" r="8" transform="rotate(0,394,234)"/><circle cx="394" cy="266" r="8" transform="rotate(0,394,266)"/><circle cx="394" cy="282" r="8" transform="rotate(0,394,282)"/><circle cx="394" cy="298" r="8" transform="rotate(0,394,298)"/><circle cx="394" cy="314" r="8" transform="rotate(0,394,314)"/><circle cx="394" cy="330" r="8" transform="rotate(0,394,330)"/><circle cx="394" cy="346" r="8" transform="rotate(0,394,346)"/><circle cx="394" cy="410" r="8" transform="rotate(0,394,410)"/><circle cx="394" cy="426" r="8" transform="rotate(0,394,426)"/><circle cx="394" cy="474" r="8" transform="rotate(0,394,474)"/><circle cx="410" cy="154" r="8" transform="rotate(0,410,154)"/><circle cx="410" cy="170" r="8" transform="rotate(0,410,170)"/><circle cx="410" cy="218" r="8" transform="rotate(0,410,218)"/><circle cx="410" cy="250" r="8" transform="rotate(0,410,250)"/><circle cx="410" cy="298" r="8" transform="rotate(0,410,298)"/><circle cx="410" cy="330" r="8" transform="rotate(0,410,330)"/><circle cx="410" cy="346" r="8" transform="rotate(0,410,346)"/><circle cx="410" cy="362" r="8" transform="rotate(0,410,362)"/><circle cx="410" cy="378" r="8" transform="rotate(0,410,378)"/><circle cx="410" cy="394" r="8" transform="rotate(0,410,394)"/><circle cx="410" cy="410" r="8" transform="rotate(0,410,410)"/><circle cx="426" cy="170" r="8" transform="rotate(0,426,170)"/><circle cx="426" cy="186" r="8" transform="rotate(0,426,186)"/><circle cx="426" cy="234" r="8" transform="rotate(0,426,234)"/><circle cx="426" cy="266" r="8" transform="rotate(0,426,266)"/><circle cx="426" cy="282" r="8" transform="rotate(0,426,282)"/><circle cx="426" cy="314" r="8" transform="rotate(0,426,314)"/><circle cx="426" cy="394" r="8" transform="rotate(0,426,394)"/><circle cx="426" cy="426" r="8" transform="rotate(0,426,426)"/><circle cx="426" cy="474" r="8" transform="rotate(0,426,474)"/><circle cx="442" cy="218" r="8" transform="rotate(0,442,218)"/><circle cx="442" cy="250" r="8" transform="rotate(0,442,250)"/><circle cx="442" cy="266" r="8" transform="rotate(0,442,266)"/><circle cx="442" cy="282" r="8" transform="rotate(0,442,282)"/><circle cx="442" cy="298" r="8" transform="rotate(0,442,298)"/><circle cx="442" cy="314" r="8" transform="rotate(0,442,314)"/><circle cx="442" cy="330" r="8" transform="rotate(0,442,330)"/><circle cx="442" cy="346" r="8" transform="rotate(0,442,346)"/><circle cx="442" cy="362" r="8" transform="rotate(0,442,362)"/><circle cx="442" cy="426" r="8" transform="rotate(0,442,426)"/><circle cx="442" cy="458" r="8" transform="rotate(0,442,458)"/><circle cx="442" cy="474" r="8" transform="rotate(0,442,474)"/><circle cx="458" cy="154" r="8" transform="rotate(0,458,154)"/><circle cx="458" cy="202" r="8" transform="rotate(0,458,202)"/><circle cx="458" cy="218" r="8" transform="rotate(0,458,218)"/><circle cx="458" cy="234" r="8" transform="rotate(0,458,234)"/><circle cx="458" cy="282" r="8" transform="rotate(0,458,282)"/><circle cx="458" cy="298" r="8" transform="rotate(0,458,298)"/><circle cx="458" cy="330" r="8" transform="rotate(0,458,330)"/><circle cx="458" cy="346" r="8" transform="rotate(0,458,346)"/><circle cx="458" cy="362" r="8" transform="rotate(0,458,362)"/><circle cx="458" cy="378" r="8" transform="rotate(0,458,378)"/><circle cx="458" cy="394" r="8" transform="rotate(0,458,394)"/><circle cx="458" cy="458" r="8" transform="rotate(0,458,458)"/><circle cx="458" cy="474" r="8" transform="rotate(0,458,474)"/><circle cx="474" cy="186" r="8" transform="rotate(0,474,186)"/><circle cx="474" cy="202" r="8" transform="rotate(0,474,202)"/><circle cx="474" cy="218" r="8" transform="rotate(0,474,218)"/><circle cx="474" cy="250" r="8" transform="rotate(0,474,250)"/><circle cx="474" cy="282" r="8" transform="rotate(0,474,282)"/><circle cx="474" cy="298" r="8" transform="rotate(0,474,298)"/><circle cx="474" cy="330" r="8" transform="rotate(0,474,330)"/><circle cx="474" cy="346" r="8" transform="rotate(0,474,346)"/><circle cx="474" cy="378" r="8" transform="rotate(0,474,378)"/><circle cx="474" cy="410" r="8" transform="rotate(0,474,410)"/><circle cx="474" cy="458" r="8" transform="rotate(0,474,458)"/></clipPath><clipPath id="clip-path-corners-square-color-0-0"><path clip-rule="evenodd" d="M 18 18v 112h 112v -112zM 34 34h 80v 80h -80z" transform="rotate(0,74,74)"/></clipPath><clipPath id="clip-path-corners-dot-color-0-0"><rect x="50" y="50" width="48" height="48" transform="rotate(0,74,74)"/></clipPath><clipPath id="clip-path-corners-square-color-1-0"><path clip-rule="evenodd" d="M 370 18v 112h 112v -112zM 386 34h 80v 80h -80z" transform="rotate(90,426,74)"/></clipPath><clipPath id="clip-path-corners-dot-color-1-0"><rect x="402" y="50" width="48" height="48" transform="rotate(90,426,74)"/></clipPath><clipPath id="clip-path-corners-square-color-0-1"><path clip-rule="evenodd" d="M 18 370v 112h 112v -112zM 34 386h 80v 80h -80z" transform="rotate(-90,74,426)"/></clipPath><clipPath id="clip-path-corners-dot-color-0-1"><rect x="50" y="402" width="48" height="48" transform="rotate(-90,74,426)"/></clipPath></defs><rect x="0" y="0" height="500" width="500" clip-path="url('#clip-path-background-color')" fill="#fff"/><rect x="0" y="0" height="500" width="500" clip-path="url('#clip-path-dot-color')" fill="#000000"/><rect x="18" y="18" height="112" width="112" clip-path="url('#clip-path-corners-square-color-0-0')" fill="#000000"/><rect x="50" y="50" height="48" width="48" clip-path="url('#clip-path-corners-dot-color-0-0')" fill="#000000"/><rect x="370" y="18" height="112" width="112" clip-path="url('#clip-path-corners-square-color-1-0')" fill="#000000"/><rect x="402" y="50" height="48" width="48" clip-path="url('#clip-path-corners-dot-color-1-0')" fill="#000000"/><rect x="18" y="370" height="112" width="112" clip-path="url('#clip-path-corners-square-color-0-1')" fill="#000000"/><rect x="50" y="402" height="48" width="48" clip-path="url('#clip-path-corners-dot-color-0-1')" fill="#000000"/></svg>